<svg xmlns="http://www.w3.org/2000/svg" viewBox="0 0 535.97 414.47"><defs><style>.cls-1{fill:#006bb6;fill-rule:evenodd;}</style></defs><g id="Layer_2" data-name="Layer 2"><g id="Layer_1-2" data-name="Layer 1"><path class="cls-1" d="M334.69,408.14C322.4,266,416.1,150.76,518.51,137.22c62.67,126.79-53.78,248-183.82,270.92Z"/><path class="cls-1" d="M444.6,53C460,62.64,484.52,85.91,493,97.32,362.06,167.13,321.79,294.71,325.18,409.73c-5.66,1.07-11.93,1.51-17.16,2.48C298.34,246.31,371.29,127,444.6,53Z"/><path class="cls-1" d="M342.18,8.4c18.74,3.36,46.63,13.27,62.06,21.32C331.11,171.11,294.68,251.18,299.91,413h0l-16.82,1.06h0C284.48,186.59,305.4,141.2,342.18,8.4Z"/><path class="cls-1" d="M298.25,1.68a364.38,364.38,0,0,0-62.49-.62c20,138.38,22.22,197,26,413.36,4.71.09,8.11.09,13.86-.18-.87-215,3.83-272.94,22.66-412.56Z"/><path class="cls-1" d="M193.75,8.4c-18.75,3.36-46.55,13.27-62,21.32C204.81,171.11,241.34,251.18,236,413h0l16.91,1.06h0C251.45,186.59,230.53,141.2,193.75,8.4Z"/><path class="cls-1" d="M91.41,53C76,62.64,51.58,85.91,43,97.32,174,167.13,214.14,294.71,210.74,409.73c5.75,1.07,12.12,1.51,17.26,2.48C237.67,246.31,164.81,127,91.41,53Z"/><path class="cls-1" d="M201.33,408.14C213.53,266,119.92,150.76,17.5,137.22-45.26,264,71.19,385.22,201.33,408.14Z"/></g></g></svg>